<?xml version="1.0" encoding="utf-8"?>
<!-- Generator: Adobe Illustrator 19.0.0, SVG Export Plug-In . SVG Version: 6.00 Build 0)  -->
<svg version="1.1" id="Layer_1" xmlns="http://www.w3.org/2000/svg" xmlns:xlink="http://www.w3.org/1999/xlink" x="0px" y="0px"
	 viewBox="97 313.3 693.2 214.6" style="enable-background:new 97 313.3 693.2 214.6;" xml:space="preserve">
<style type="text/css">
	.st0{fill:#F16723;}
	.st1{fill:#FFFFFF;}
	.st2{fill:#F06824;}
</style>
<g>
	<g>
		<path class="st0" d="M125.4,414.5l1,11.4c6.9-8.8,16.2-13.2,27.8-13.2c12.3,0,20.6,4.9,24.9,14.7c6.6-9.8,16.1-14.7,28.6-14.7
			c19.7,0,29.8,11.9,30.4,35.8v63.3h-30.4v-61.4c0-5-0.8-8.6-2.5-10.9c-1.7-2.3-4.7-3.4-9.2-3.4c-6,0-10.5,2.7-13.4,8l0.1,1.3v66.4
			h-30.4v-61.2c0-5.1-0.8-8.8-2.4-11.1s-4.7-3.4-9.3-3.4c-5.8,0-10.2,2.7-13.3,8v67.7H97v-97.3H125.4z"/>
		<path class="st0" d="M236.9,461.3c0-9.7,1.9-18.4,5.7-25.9c3.8-7.6,9.2-13.4,16.3-17.5c7.1-4.1,15.4-6.1,24.9-6.1
			c14.6,0,26,4.5,34.4,13.5c8.4,9,12.6,21.3,12.6,36.8v1.1c0,15.2-4.2,27.2-12.6,36.1c-8.4,8.9-19.8,13.4-34.2,13.4
			c-13.8,0-25-4.2-33.4-12.5c-8.4-8.3-12.9-19.6-13.6-33.8L236.9,461.3z M267.2,463.2c0,9,1.4,15.6,4.2,19.8c2.8,4.2,7,6.3,12.5,6.3
			c10.8,0,16.3-8.3,16.5-24.9v-3.1c0-17.4-5.6-26.2-16.7-26.2c-10.1,0-15.6,7.5-16.5,22.6L267.2,463.2z"/>
		<path class="st0" d="M329.6,461.3c0-9.7,1.9-18.4,5.7-25.9c3.8-7.6,9.2-13.4,16.3-17.5c7.1-4.1,15.4-6.1,24.9-6.1
			c14.6,0,26,4.5,34.4,13.5c8.4,9,12.6,21.3,12.6,36.8v1.1c0,15.2-4.2,27.2-12.6,36.1c-8.4,8.9-19.8,13.4-34.2,13.4
			c-13.8,0-25-4.2-33.4-12.5c-8.4-8.3-12.9-19.6-13.6-33.8L329.6,461.3z M359.9,463.2c0,9,1.4,15.6,4.2,19.8c2.8,4.2,7,6.3,12.5,6.3
			c10.8,0,16.3-8.3,16.5-24.9v-3.1c0-17.4-5.6-26.2-16.7-26.2c-10.1,0-15.6,7.5-16.5,22.6L359.9,463.2z"/>
		<path class="st0" d="M458.6,496l29.6-82.4h11.1l-36.3,97.3h-8.7l-36.5-97.3h11.1L458.6,496z"/>
		<path class="st0" d="M539.5,514.5c-8.3,0-15.7-2-22.4-6.1c-6.7-4.1-11.9-9.8-15.6-17c-3.7-7.3-5.6-15.4-5.6-24.5v-3.9
			c0-9.3,1.8-17.8,5.4-25.3c3.6-7.5,8.7-13.4,15.1-17.7c6.5-4.3,13.5-6.4,21-6.4c11.8,0,21.2,4,28.1,12.1c6.9,8.1,10.4,19.1,10.4,33
			v6h-69.4v2.1c0,11,3.2,20.2,9.5,27.6c6.3,7.3,14.3,11,23.9,11c5.8,0,10.8-1,15.2-3.1c4.4-2.1,8.4-5.5,12-10.1l6.7,5.1
			C566,508.7,554.5,514.5,539.5,514.5z M537.5,422.8c-8.1,0-14.9,3-20.5,8.9c-5.5,5.9-8.9,13.9-10.1,23.9h58.3v-1.2
			c-0.3-9.3-3-17-8-22.8C552.2,425.7,545.6,422.8,537.5,422.8z"/>
		<path class="st0" d="M627.7,514.5c-8.3,0-15.7-2-22.4-6.1c-6.7-4.1-11.9-9.8-15.6-17c-3.7-7.3-5.6-15.4-5.6-24.5v-3.9
			c0-9.3,1.8-17.8,5.4-25.3c3.6-7.5,8.7-13.4,15.1-17.7c6.5-4.3,13.5-6.4,21-6.4c11.8,0,21.2,4,28.1,12.1c6.9,8.1,10.4,19.1,10.4,33
			v6h-69.4v2.1c0,11,3.2,20.2,9.5,27.6c6.3,7.3,14.3,11,23.9,11c5.8,0,10.8-1,15.2-3.1c4.4-2.1,8.4-5.5,12-10.1l6.7,5.1
			C654.2,508.7,642.7,514.5,627.7,514.5z M625.7,422.8c-8.1,0-14.9,3-20.5,8.9c-5.5,5.9-8.9,13.9-10.1,23.9h58.3v-1.2
			c-0.3-9.3-3-17-8-22.8C640.4,425.7,633.8,422.8,625.7,422.8z"/>
		<g>
			<path class="st0" d="M677.7,509.3h-7.4v-7.6h7.4V509.3z"/>
			<path class="st0" d="M696.9,468.5l0.5,5.4c1.3-1.9,3-3.4,5.1-4.5c2.1-1.1,4.4-1.6,7.2-1.6c2.7,0,5.1,0.6,7,1.9
				c2,1.3,3.4,3.1,4.4,5.7c1.3-2.3,3-4.2,5.1-5.5c2.1-1.3,4.6-2,7.4-2c4.2,0,7.4,1.4,9.9,4.3c2.4,2.9,3.6,7.2,3.6,12.9v24.4h-7.4
				v-24.5c0-4-0.7-6.9-2.1-8.6c-1.4-1.7-3.4-2.5-6.2-2.5c-2.5,0-4.6,0.9-6.2,2.6s-2.5,4-2.8,6.7v0.3v25.9h-7.5v-24.5
				c0-3.8-0.7-6.6-2.1-8.4c-1.4-1.8-3.5-2.7-6.1-2.7c-2.3,0-4.1,0.5-5.6,1.4c-1.5,0.9-2.6,2.2-3.4,3.9v30.2h-7.4v-40.8H696.9z"/>
			<path class="st0" d="M770.3,494.2l1.3,5.1h0.2l10-30.8h8.3L773,515.6c-1,2.7-2.5,5.1-4.4,7.2c-1.9,2-4.5,3.1-7.8,3.1
				c-0.6,0-1.4-0.1-2.3-0.2c-0.9-0.1-1.6-0.3-2.2-0.4l0.8-5.9c-0.2,0,0.3,0,1.3,0.1c1,0.1,1.7,0.1,2,0.1c1.6,0,2.9-0.7,3.9-2.1
				c1-1.4,1.8-3,2.5-4.7l1.8-4.3l-15.2-40h8.3L770.3,494.2z"/>
		</g>
	</g>
	<g>
		<g>
			<g>
				<path class="st1" d="M697.1,460.9l-74.3-97.4l6.7-5c1.4-1.1,1.9-3.1,1.1-4.8l-2.8-5.8l35.8-27.3l4.8,4.2c0.7,0.6,1.7,1,2.6,1
					c0.6,0,1.5-0.1,2.4-0.8l6.3-5.5l5.2,6.5l69.4,91l-7.1,4.9c-1.4,1.1-1.9,2.9-1.3,4.6l2.1,5.5l-35.4,27l-4.7-3.4
					c-0.7-0.5-1.5-0.8-2.4-0.8c-0.6,0-1.4,0.1-2.3,0.7L697.1,460.9z M705.8,439c2.1,0,4.1,0.3,6.1,0.9l18.4-14
					c-0.2-3.9,0.9-7.8,2.9-11.1l-56.5-74.1c-4.1,1.2-8.6,1-12.6-0.6l-17.4,13.3c0.4,4.1-0.5,8.3-2.6,11.9l56.7,74.3
					C702.3,439.2,704,439,705.8,439z"/>
			</g>
			<g>
				<path class="st2" d="M678.3,331.2c-4.5,3.5-10.8,3.1-15-0.4l-25.7,19.6c2.4,5,1,11.1-3.5,14.5c-0.1,0.1-0.2,0.1-0.3,0.2
					l64.4,84.5c0.1-0.1,0.2-0.2,0.3-0.2c4.3-3.3,10-3.2,14.2-0.2l26.1-19.9c-1.8-4.8-0.4-10.4,3.9-13.6c0.2-0.1,0.4-0.3,0.6-0.4
					l-64.5-84.5C678.7,330.9,678.5,331.1,678.3,331.2z"/>
			</g>
		</g>
		<g>
			<g>
				<path class="st1" d="M764.8,451.4l-44.5-0.4l-1.6-5.6c-0.5-1.6-2-2.8-3.7-2.9l-0.1,0l-8.2,0.3l1-122.5l8.4,0.3
					c1.8-0.1,3.4-1.4,3.8-3.1l1.4-6.2l45,0.4l1.3,6.3c0.4,1.8,2,3.2,3.9,3.2l0.3,0l8.3-0.4l-1,122.8l-8.6-0.5c0,0,0,0,0,0
					c-1.7,0-3.3,1.2-3.8,2.8L764.8,451.4z M731.1,435.4l23.1,0.2c2.3-3.2,5.4-5.7,9.1-7.1l0.7-93.2c-4-1.6-7.4-4.5-9.6-8.1
					l-21.9-0.2c-2.2,3.5-5.5,6.3-9.4,7.8l-0.7,93.5C726,429.9,729,432.3,731.1,435.4z"/>
			</g>
			<g>
				<path class="st2" d="M771.3,328.9c-5.7,0-10.5-4.1-11.5-9.5l-32.3-0.3c-1.2,5.4-6,9.4-11.7,9.3c-0.1,0-0.2,0-0.4,0l-0.8,106.2
					c0.1,0,0.2,0,0.4,0c5.4,0,9.9,3.6,11.3,8.6l32.8,0.3c1.5-4.9,6.1-8.4,11.4-8.4c0.2,0,0.5,0,0.7,0l0.8-106.3
					C771.8,328.9,771.5,328.9,771.3,328.9z"/>
			</g>
		</g>
	</g>
</g>
</svg>
