<?xml version="1.0" encoding="utf-8"?>
<!-- Generator: Adobe Illustrator 19.0.0, SVG Export Plug-In . SVG Version: 6.00 Build 0)  -->
<svg version="1.1" id="Layer_1" xmlns="http://www.w3.org/2000/svg" xmlns:xlink="http://www.w3.org/1999/xlink" x="0px" y="0px"
	 viewBox="119 -242.7 1080 1080" style="enable-background:new 119 -242.7 1080 1080;" xml:space="preserve">
<style type="text/css">
	.st0{fill:#FFFFFF;}
</style>
<g>
	<path class="st0" d="M1107.2-213.7H210.6c-9,0-16.4,7.4-16.4,16.4V63.6c0,9,7.4,16.4,16.4,16.4h896.8c9,0,16.4-7.4,16.4-16.4
		v-260.9C1123.6-206.3,1116.2-213.7,1107.2-213.7L1107.2-213.7z M226.8-181H830V47.2H226.8V-181z M1091.1,47.2H862.9V-181h228.2
		V47.2z"/>
	<path class="st0" d="M471.5,590.8h285.3c9,0,16.4-7.4,16.4-16.4s-7.4-16.4-16.4-16.4H471.5c-9,0-16.4,7.4-16.4,16.4
		S462.3,590.8,471.5,590.8L471.5,590.8z"/>
	<path class="st0" d="M1042,471.1H471.5c-9,0-16.4,7.4-16.4,16.4s7.4,16.4,16.4,16.4h570.7c9,0,16.4-7.4,16.4-16.4
		S1051,471.1,1042,471.1L1042,471.1z"/>
	<path class="st0" d="M471.5,329.9h285.3c9,0,16.4-7.4,16.4-16.4s-7.4-16.4-16.4-16.4H471.5c-9,0-16.4,7.4-16.4,16.4
		S462.3,329.9,471.5,329.9L471.5,329.9z"/>
	<path class="st0" d="M471.5,242.9h570.7c9,0,16.4-7.4,16.4-16.4s-7.4-16.4-16.4-16.4H471.5c-9,0-16.4,7.4-16.4,16.4
		S462.3,242.9,471.5,242.9L471.5,242.9z"/>
	<path class="st0" d="M1107.2,123.4H210.6c-9,0-16.4,7.4-16.4,16.4v260.9c0,9,7.4,16.4,16.4,16.4h896.8c9,0,16.4-7.4,16.4-16.4
		V139.6C1123.6,130.6,1116.2,123.4,1107.2,123.4L1107.2,123.4z M1091.1,384.2H226.8V156h864.1v228.2H1091.1z"/>
	<path class="st0" d="M914.8-34.7c12.6,12.6,29.3,19.6,47.1,19.6c12.2,0,23.9-3.2,34.1-9.3l34.5,34.5c3.2,3.2,7.4,4.9,11.5,4.9
		c4.1,0,8.3-1.6,11.5-4.9c6.3-6.3,6.3-16.7,0-23L1019-47.5c6.1-10.2,9.3-21.9,9.3-34.1c0-17.8-7-34.5-19.6-47.1
		c-12.6-12.6-29.3-19.6-47.1-19.6s-34.5,7-47.1,19.6C888.9-103,888.9-60.6,914.8-34.7L914.8-34.7z M938-105.9
		c6.5-6.5,14.9-9.9,24.1-9.9c9.2,0,17.6,3.6,24.1,9.9c6.5,6.5,9.9,14.9,9.9,24.1s-3.6,17.6-9.9,24.1c-6.5,6.5-14.9,9.9-24.1,9.9
		c-9.2,0-17.6-3.6-24.1-9.9C924.7-71,924.7-92.6,938-105.9L938-105.9z"/>
	<path class="st0" d="M406.3,449.4H275.8c-9,0-16.4,7.4-16.4,16.4v130.5c0,9,7.4,16.4,16.4,16.4h130.5c9,0,16.4-7.4,16.4-16.4V465.7
		C422.4,456.8,415.2,449.4,406.3,449.4L406.3,449.4z M389.9,579.8h-97.8v-97.8h97.8V579.8z"/>
	<path class="st0" d="M756.7,753.8H471.5c-9,0-16.4,7.4-16.4,16.4s7.4,16.4,16.4,16.4h285.3c9,0,16.4-7.4,16.4-16.4
		S765.8,753.8,756.7,753.8L756.7,753.8z"/>
	<path class="st0" d="M1042,666.8H471.5c-9,0-16.4,7.4-16.4,16.4s7.4,16.4,16.4,16.4h570.7c9,0,16.4-7.4,16.4-16.4
		C1058.4,674.2,1051,666.8,1042,666.8L1042,666.8z"/>
	<path class="st0" d="M406.3,645.1H275.8c-9,0-16.4,7.4-16.4,16.4v130.5c0,9,7.4,16.4,16.4,16.4h130.5c9,0,16.4-7.4,16.4-16.4V661.4
		C422.4,652.4,415.2,645.1,406.3,645.1L406.3,645.1z M389.9,775.5h-97.8v-97.8h97.8V775.5z"/>
	<path class="st0" d="M275.8,351.6h130.5c9,0,16.4-7.4,16.4-16.4V204.8c0-9-7.4-16.4-16.4-16.4H275.8c-9,0-16.4,7.4-16.4,16.4v130.5
		C259.5,344.3,266.8,351.6,275.8,351.6L275.8,351.6z M292,221.2h97.8v97.8H292V221.2z"/>
</g>
</svg>
