<?xml version="1.0" encoding="utf-8"?>
<!-- Generator: Adobe Illustrator 19.0.0, SVG Export Plug-In . SVG Version: 6.00 Build 0)  -->
<svg version="1.1" id="Layer_1" xmlns="http://www.w3.org/2000/svg" xmlns:xlink="http://www.w3.org/1999/xlink" x="0px" y="0px"
	 viewBox="119 -101.2 1080 797" style="enable-background:new 119 -101.2 1080 797;" xml:space="preserve">
<style type="text/css">
	.st0{clip-path:url(#SVGID_2_);fill:#FFFFFF;}
</style>
<g>
	<g>
		<defs>
			<rect id="SVGID_1_" x="119" y="-101.2" width="1080" height="797"/>
		</defs>
		<clipPath id="SVGID_2_">
			<use xlink:href="#SVGID_1_"  style="overflow:visible;"/>
		</clipPath>
		<path class="st0" d="M300.2,689.6c-4,0-7.8-2.3-9.5-6.4l-21.3-50.6c-2.2-5.2,0.3-11.3,5.5-13.4c15.6-6.5,26.5-19.7,30.8-34.9
			h-56.8c-5.6,0-10.3-4.6-10.3-10.3v-54.8c0-0.4,0-0.7,0-1c-1.7,0.6-3.6,1.2-5.4,2c-2.6,1-5.4,1-8,0c-2.5-1-4.5-3-5.6-5.5
			l-29.2-69.3c-2.2-5.2,0.3-11.3,5.5-13.4c27.3-11.4,40.2-43.1,28.6-70.3c-5.6-13.2-15.9-23.4-29.2-28.9
			c-13.3-5.4-27.9-5.4-41.1,0.3c-2.5,1-5.4,1-8,0c-2.5-1-4.5-3-5.6-5.5L119.4,277c-2.2-5.2,0.3-11.3,5.5-13.4l144.5-60.7
			c-6.5-2.7-13.6-4.2-20.8-4.2c-5.6,0-10.3-4.6-10.3-10.3v-54.8c0-5.6,4.6-10.3,10.3-10.3h210.1l531.5-223.4
			c5.2-2.2,11.3,0.3,13.4,5.5l21.3,50.6c1,2.5,1,5.4,0,7.8c-1,2.6-3,4.5-5.5,5.6c-27.3,11.4-40.2,43.1-28.6,70.3
			c5.6,13.2,15.9,23.4,29.2,28.9c13.3,5.5,27.9,5.4,41.1-0.3c2.5-1,5.4-1,8,0c2.5,1,4.5,3,5.6,5.5l20.8,49.5h91.8
			c5.6,0,10.3,4.6,10.3,10.3v54.8c0,5.6-4.6,10.3-10.3,10.3c-29.6,0-53.7,24.2-53.7,53.7c0,1.7,0.1,3.6,0.3,5.4c2-0.6,4-1.3,6.1-2.2
			c2.5-1,5.4-1,7.8,0c2.6,1,4.5,3,5.6,5.5l17.9,42.5c5.2,1.6,10.6,2.5,16.1,2.5c5.6,0,10.3,4.6,10.3,10.3v75.2
			c0,5.6-4.6,10.3-10.3,10.3c-29.6,0-53.7,24.2-53.7,53.7c0,29.6,24.2,53.7,53.7,53.7c5.6,0,10.3,4.6,10.3,10.3V574
			c0,5.6-4.6,10.3-10.3,10.3H552.1l-248,104.3C303,689.3,301.5,689.6,300.2,689.6L300.2,689.6z M292.1,633.6l13.6,32.2l239.9-100.9
			c0.1,0,0.3-0.1,0.4-0.1l605.8-254.8l-13.6-32.2c-3.3,0.9-6.7,1.4-10,1.9c-0.4,0.1-0.9,0.1-1.3,0.3c-32.5,3.8-64.1-14.8-76.8-45
			c-14.6-34.6-0.9-74,30.5-92.6l-2-4.9c-0.4-1-0.7-2.2-0.7-3.2l-18.4-43.8c-35.1,9.4-73-8.5-87.5-43c-14.6-34.6-0.9-74,30.5-92.7
			L989-77.5L142.7,278.4l13.6,32.2c15.5-4.2,32-3.2,47.1,3c18.4,7.5,32.7,21.7,40.3,40.1c14.6,34.6,0.9,74-30.5,92.6l21.7,51.6
			c35.3-9.4,73,8.5,87.5,43C337.1,575.5,323.5,614.9,292.1,633.6L292.1,633.6z M601.2,563.9h576.2v-35
			c-36.2-5.1-64.1-36.2-64.1-73.6s27.9-68.5,64.1-73.6v-56.1c-2.3-0.3-4.6-0.7-6.9-1.3c-0.3,0.1-0.6,0.3-1,0.4l-103.5,43.5v155.5
			c0,5.6-4.6,10.3-10.3,10.3H672.7c-0.3,0-0.7,0-1,0L601.2,563.9z M259.3,563.9H307c-0.6-5.1-1.9-10-3.9-14.8
			c-4.6-11.1-13-20.2-23.6-26.2c-6.5,2.9-13.3,4.9-20.4,5.9v35H259.3z M720.6,513.7h324.7V377.2l-67.8,28.5v56.8
			c0,5.6-4.6,10.3-10.3,10.3c-5.6,0-10.3-4.6-10.3-10.3v-48.2l-90.1,37.9h20.7c5.6,0,10.3,4.6,10.3,10.3c0,5.6-4.6,10.3-10.3,10.3
			h-69.6L720.6,513.7z M1104.3,143.6c1.7,5.1-0.7,10.7-5.8,12.7c-13.2,5.5-23.6,15.9-28.9,29.2c-5.4,13.3-5.4,27.9,0.3,41.1
			c5.6,13.2,15.9,23.4,29.2,28.9c4.8,1.9,9.7,3.2,14.6,3.8c-0.3-2.3-0.3-4.8-0.3-7.1c0-37.5,27.9-68.5,63.9-73.6v-35H1104.3z
			 M259.3,178.6c12.3,1.7,24.2,6.7,34.1,14.2l116.7-49H259.3V178.6z M402.4,592.1c-1.3,0-2.6-0.3-3.9-0.7c-2.6-1-4.5-3-5.6-5.5
			L260.9,272c-2.2-5.2,0.3-11.3,5.5-13.4L888.2-2.9c5.2-2.2,11.3,0.3,13.4,5.5l132,313.8c1,2.5,1,5.4,0,7.8c-1,2.6-3,4.5-5.5,5.6
			L406.4,591.4C405.2,591.8,403.8,592.1,402.4,592.1L402.4,592.1z M283.9,273.5l123.9,294.9l602.9-253.5L886.8,20L283.9,273.5z
			 M460,501.1c-4,0-7.8-2.3-9.5-6.4l-80.3-190.9l-32.8,13.9c-5.2,2.2-11.3-0.3-13.4-5.5s0.3-11.3,5.5-13.4l42.4-17.8l0,0l42.4-17.8
			c5.2-2.2,11.3,0.3,13.4,5.5c2.2,5.2-0.3,11.3-5.5,13.4l-33,13.9l80.3,190.9c2.2,5.2-0.3,11.3-5.5,13.4
			C462.6,501,461.3,501.1,460,501.1L460,501.1z M535.5,469.3c-4,0-7.8-2.3-9.5-6.2l-84.3-200.3c-2.2-5.2,0.3-11.3,5.5-13.4
			c5.2-2.2,11.3,0.3,13.4,5.5l84.3,200.3c2.2,5.2-0.3,11.3-5.5,13.4C538.2,469.2,536.9,469.3,535.5,469.3L535.5,469.3z M575.6,452.5
			c-0.6,0-1.2,0-1.7-0.1c-2.7-0.4-5.2-2-6.8-4.3c-0.4-0.6-0.7-1.2-1-1.9l0,0l0,0l0,0l-84.3-200.3c-2.2-5.2,0.3-11.3,5.5-13.4l0,0
			l64.1-26.9c2.5-1,5.4-1,7.8,0c2.6,1,4.5,3,5.6,5.5l13.4,32c2.2,5.2-0.3,11.3-5.5,13.4c-5.2,2.2-11.3-0.3-13.4-5.5l-9.4-22.6
			l-45.1,18.9l76.2,181.3l45.1-18.9l-7.7-18.4c-2.2-5.2,0.3-11.3,5.5-13.4s11.3,0.3,13.4,5.5l11.7,27.9c2.2,5.2-0.3,11.3-5.5,13.4
			l-64.1,27C578.2,452.2,576.9,452.5,575.6,452.5L575.6,452.5z M674.9,410.7c-4,0-7.8-2.3-9.5-6.4l-84.2-200.3
			c-2.2-5.2,0.3-11.3,5.5-13.4c5.2-2.2,11.3,0.3,13.4,5.5l29.2,69.3l19.2-96c1.2-5.6,6.5-9.3,12.1-8.1c5.6,1.2,9.1,6.5,8.1,12.1
			l-24.4,121.9l104.3,67.8c4.8,3,6.1,9.4,3,14.2c-3,4.8-9.4,6.1-14.2,3l-82-53.4l29.2,69.3c2.2,5.2-0.3,11.3-5.5,13.4
			C677.5,410.6,676.2,410.7,674.9,410.7L674.9,410.7z M781.3,366c-0.6,0-1.2,0-1.7-0.1c-3.3-0.6-6.4-2.7-7.8-6.2l-42.1-100.1v-0.1
			v-0.1l-42.1-100.1c-0.3-0.9-0.6-1.7-0.7-2.7c-0.6-4.5,1.9-9,6.2-10.8l0,0l64.1-26.9c5.2-2.2,11.3,0.3,13.4,5.5
			c2.2,5.2-0.3,11.3-5.5,13.4l-54.7,23l34.1,81.3l54.7-23c5.2-2.2,11.3,0.3,13.4,5.5c2.2,5.2-0.3,11.3-5.5,13.4l-54.7,23l34.1,81.1
			l54.7-23c5.2-2.2,11.3,0.3,13.4,5.5s-0.3,11.3-5.5,13.4l-64.1,26.9C784.1,365.8,782.6,366,781.3,366L781.3,366z M919,308.1
			c-4,0-7.8-2.3-9.5-6.4l-80.3-190.9l-33,13.9c-5.2,2.2-11.3-0.3-13.4-5.5c-2.2-5.2,0.3-11.3,5.5-13.4L873,70
			c5.2-2.2,11.3,0.3,13.4,5.5c2.2,5.2-0.3,11.3-5.5,13.4l-32.8,13.9l80.3,190.9c2.2,5.2-0.3,11.3-5.5,13.4
			C921.6,307.9,920.3,308.1,919,308.1L919,308.1z"/>
	</g>
</g>
</svg>
