<?xml version="1.0" encoding="utf-8"?>
<!-- Generator: Adobe Illustrator 19.0.0, SVG Export Plug-In . SVG Version: 6.00 Build 0)  -->
<svg version="1.1" id="Layer_1" xmlns="http://www.w3.org/2000/svg" xmlns:xlink="http://www.w3.org/1999/xlink" x="0px" y="0px"
	 viewBox="119 -242.7 1080 1080" style="enable-background:new 119 -242.7 1080 1080;" xml:space="preserve">
<style type="text/css">
	.st0{fill:#FFFFFF;}
	.st1{fill:#F16723;}
	.st2{clip-path:url(#SVGID_2_);fill:#F16723;}
	.st3{clip-path:url(#SVGID_4_);fill:#F16723;}
</style>
<g>
	<g>
		<ellipse class="st0" cx="968.3" cy="11.7" rx="176.3" ry="175.9"/>
		<g>
			<path class="st1" d="M917.9-49.3c-7.9-7.9-20.8-7.9-28.7,0c-7.9,7.9-7.9,20.8,0,28.7c7.9,7.9,20.8,7.9,28.7,0
				S925.8-41.4,917.9-49.3L917.9-49.3z"/>
			<g>
				<g>
					<defs>
						<rect id="SVGID_1_" x="747.9" y="-214.4" width="440.8" height="441.9"/>
					</defs>
					<clipPath id="SVGID_2_">
						<use xlink:href="#SVGID_1_"  style="overflow:visible;"/>
					</clipPath>
					<path class="st2" d="M1018.3,33.1c-7.9,7.9-7.9,20.8,0,28.7c7.9,7.9,20.8,7.9,28.7,0c7.9-7.9,7.9-20.8,0-28.7
						C1038.9,25.2,1026.2,25.2,1018.3,33.1L1018.3,33.1z"/>
				</g>
				<g>
					<defs>
						<rect id="SVGID_3_" x="747.9" y="-214.4" width="440.8" height="441.9"/>
					</defs>
					<clipPath id="SVGID_4_">
						<use xlink:href="#SVGID_3_"  style="overflow:visible;"/>
					</clipPath>
					<path class="st3" d="M1123.8-149.5c-86-86-225.4-86-311.4,0c-82.7,82.9-85.7,215.1-9.2,301.5l2.2,1.8
						c-8.3,18-22.6,40.1-45.4,51.3c-7.5,3.7-5.7,14.9,2.4,16.2c24.8,3.9,60.5-0.4,93.6-25.7l0.4,0.4
						c84.4,49.6,194.7,38.2,267.3-34.2C1209.8,75.9,1209.8-63.6,1123.8-149.5L1123.8-149.5z M854.7-35.1c0-27,21.9-48.9,48.9-48.9
						c27,0,48.9,21.9,48.9,48.9s-21.9,48.9-48.9,48.9C876.4,13.8,854.7-7.9,854.7-35.1L854.7-35.1z M913.1,91.3
						c-4.2,5-11.6,5.7-16.7,1.5c-5-4.2-5.7-11.6-1.5-16.7l128.5-154.6c4.2-5,11.6-5.7,16.7-1.5s5.7,11.6,1.5,16.7L913.1,91.3z
						 M1032.6,96.3c-27,0-48.9-21.9-48.9-48.9s21.9-48.9,48.9-48.9s48.9,21.9,48.9,48.9S1059.5,96.3,1032.6,96.3L1032.6,96.3z"/>
				</g>
			</g>
		</g>
	</g>
	<g>
		<path class="st0" d="M423.6,123.1c-10.3,0-20.2,2.6-28.7,7.7c-9-7.9-20.8-12.3-32.9-12.3c-27.9,0-50.4,22.6-50.4,50.4
			c0,27.9,22.6,50.4,50.4,50.4c7.9,0,14.5-6.6,14.5-14.5c0-7.9-6.6-14.5-14.5-14.5c-11.8,0-21.5-9.6-21.5-21.5
			c0-11.8,9.6-21.5,21.5-21.5c7.7,0,14.5,3.9,18.4,10.5c2.2,3.9,6.4,6.6,10.7,7s9-1.1,12.1-4.4c5.5-5.7,12.7-8.8,20.4-8.8
			c15.8,0,28.5,12.7,28.5,28.5c0,7.9,6.6,14.5,14.5,14.5s14.5-6.6,14.5-14.5C481,148.9,455.4,123.1,423.6,123.1L423.6,123.1z"/>
		<path class="st0" d="M799.7,421.3l-9.6-58.6c-1.1-7-7.2-12.1-14.3-12.1h-14.9l-12.1-45.8c-1.8-6.4-7.5-10.7-14-10.7h-51.1
			l3.7-40.3c9.9-12.9,15.4-28.7,15.4-45.2c0-32.9-21.1-60.7-51.1-70.4c0.2-2,0.2-3.9,0.2-5.9c0-32.7-26.8-59.4-59.4-59.4
			c-9.4,0-18.4,2.2-26.5,6.1c-13.4-20.2-36.4-33.1-61.6-33.1c-15.8,0-30.7,4.8-43,13.8c-11-14.3-28.3-23.2-47.1-23.2
			c-18,0-34.9,8.3-45.8,21.7c-12.1-7.9-26.1-12.3-40.6-12.3c-25.2,0-48,12.7-61.6,33.1c-8.1-3.9-17.1-6.1-26.5-6.1
			c-32.7,0-59.4,26.8-59.4,59.4c0,2,0,3.9,0.2,5.9c-30,9.6-51.1,37.5-51.1,70.2c0,16.4,5.5,32.2,15.4,45.2l52.2,542.3
			c0.7,7.5,7,13.2,14.5,13.2h511c7.5,0,13.8-5.7,14.5-13.4l30-357.4h18.4c4.2,0,8.3-1.8,11-5C799.2,429.8,800.3,425.5,799.7,421.3
			L799.7,421.3z M723.8,323l7.2,27.6H469l7.2-27.6H723.8z M493.3,294.1l2.9-30.9h79.6l-3.9,30.9H493.3z M601,294.1l3.9-30.9h52.6
			l-2.9,30.9H601z M158.9,208.6c0-20.4,13.4-37.5,32-43c7.2,10.3,20.2,20.8,39,20.8c2.2,0,4.6-0.2,7-0.4c7.9-1.1,13.4-8.3,12.5-16.2
			c-1.1-7.9-8.3-13.4-16.2-12.5c-14.3,2-20.2-10.3-21.1-12.9c0,0,0,0,0-0.2l0,0c-1.5-3.7-2.2-7.5-2.2-11.6
			c0-16.9,13.6-30.5,30.5-30.5c8.1,0,15.8,3.3,21.7,9c3.5,3.5,8.6,5,13.4,3.9c4.8-1.1,8.8-4.6,10.5-9.4
			c6.1-18.2,23.2-30.3,42.5-30.3c12.7,0,25,5.5,33.6,15.1c3.3,3.7,8.6,5.5,13.4,4.6c5-0.9,9.2-4.4,11-9.2c4.4-11.8,16-20,28.7-20
			c13.4,0,25.4,9,29.4,21.9c1.5,5.3,5.9,9.2,11.2,10.1c5.3,1.1,10.7-1.1,14-5.3c8.6-11,21.5-17.3,35.5-17.3
			c19.1,0,36.2,12.3,42.5,30.3c1.5,4.8,5.5,8.3,10.5,9.4c4.8,1.1,9.9-0.4,13.6-3.9c5.7-5.7,13.4-9,21.7-9
			c16.9,0,30.5,13.6,30.5,30.5c0,3.9-0.7,7.9-2.2,11.6c-1.8,4.2-1.3,9,1.1,12.9c2.4,3.9,6.6,6.6,11.2,6.8c23,2,41,21.7,41,44.7
			c0,9.2-2.9,18.2-8.1,25.7H167C161.8,226.8,158.9,217.8,158.9,208.6L158.9,208.6z M225.1,780.1l-49.8-516.9h52l42.8,516.9H225.1z
			 M299,780.1l-42.8-516.9h84.6l32.9,516.9H299z M402.8,780.1l-32.9-516.9h97.6l-2.9,31.1c-6.1,0.2-11.6,4.6-13.2,10.7l-12.1,45.8
			h-14.9c-7,0-13.2,5-14.3,12.1l-9.6,58.6c-0.7,4.2,0.4,8.6,3.3,11.6c2.9,3.3,6.8,5,11,5h18.4l28.3,341.9H402.8z M719.6,658.1h-71.9
			c-28.1,0-51.1-23-51.1-51.1c0-13.6,5.3-26.5,14.9-36.2c9.6-9.6,22.4-14.9,36.2-14.9H728L719.6,658.1z M730.4,527h-82.7
			c-21.5,0-41.4,8.3-56.6,23.5c-15.1,15.1-23.5,35.1-23.5,56.6c0,44.1,36,80,80,80h69.5l-7.7,93H490.5l-28.3-341.9h275.7L730.4,527z
			 M753.6,409.2H431.7l4.8-29.6h327l4.8,29.6H753.6z"/>
	</g>
</g>
</svg>
